<mxfile host="app.diagrams.net" modified="2023-09-06T21:38:44.982Z" agent="Mozilla/5.0 (Macintosh; Intel Mac OS X 10_15_7) AppleWebKit/605.1.15 (KHTML, like Gecko) Version/16.5.2 Safari/605.1.15" version="21.7.2" etag="bZaieia1rfZRZq01DXEC" type="github">
  <diagram name="Page-1" id="w2OlxrQYvo4bj9fpqQJc">
    <mxGraphModel>
      <root>
        <mxCell id="0" />
        <mxCell id="1" parent="0" />
      </root>
    </mxGraphModel>
  </diagram>
</mxfile>
